<?xml version="1.0" encoding="utf-8"?>
<!-- Generator: Adobe Illustrator 22.0.1, SVG Export Plug-In . SVG Version: 6.00 Build 0)  -->
<svg version="1.1" id="Calque_1" xmlns="http://www.w3.org/2000/svg" xmlns:xlink="http://www.w3.org/1999/xlink" x="0px" y="0px"
	 viewBox="0 0 96 90.1" style="enable-background:new 0 0 96 90.1;" xml:space="preserve">
<style type="text/css">
	.st0{fill:none;}
	.st1{fill:#EC2D2A;}
</style>
<g>
	<circle class="st0" cx="71.3" cy="42.1" r="2.8"/>
	<path class="st0" d="M48.1,39.3c-1.6,0-2.8,1.3-2.8,2.8s1.3,2.8,2.8,2.8c1.6,0,2.8-1.3,2.8-2.8S49.7,39.3,48.1,39.3z"/>
	<path class="st0" d="M25.9,39.3c-1.6,0-2.8,1.3-2.8,2.8s1.3,2.8,2.8,2.8c1.6,0,2.8-1.3,2.8-2.8S27.4,39.3,25.9,39.3z"/>
	<path class="st0" d="M48,6C24.8,6,6,22.3,6,42.3C6,53,9.4,58.7,12.3,61.5c2.4,2.4,3.1,3.5,4.4,6.2c1,2.1,1,4.5,1,5.4
		c-0.1,3.8-1.8,7.2-3.5,9.9c1.9-0.7,4.5-1.8,7.6-3.4c0.4-0.2,1.1-1,1.7-1.5c1.1-1.1,2.4-2.4,4-3.1c2.1-0.8,4-0.1,6,0.6
		c0.7,0.3,1.4,0.5,2.1,0.7c4.7,1.4,9.4,2.2,12.5,2.2c23.2,0,42-16.3,42-36.3C90,22.3,71.2,6,48,6z M25.9,51C21,51,17,47,17,42.1
		s4-8.8,8.8-8.8c4.9,0,8.8,4,8.8,8.8S30.7,51,25.9,51z M48.1,51c-4.9,0-8.8-4-8.8-8.8s4-8.8,8.8-8.8c4.9,0,8.8,4,8.8,8.8
		S53,51,48.1,51z M71.3,51c-4.9,0-8.8-4-8.8-8.8s4-8.8,8.8-8.8s8.8,4,8.8,8.8S76.2,51,71.3,51z"/>
	<path class="st1" d="M25.9,33.3c-4.9,0-8.8,4-8.8,8.8s4,8.8,8.8,8.8c4.9,0,8.8-4,8.8-8.8S30.7,33.3,25.9,33.3z M25.9,45
		c-1.6,0-2.8-1.3-2.8-2.8s1.3-2.8,2.8-2.8c1.6,0,2.8,1.3,2.8,2.8S27.4,45,25.9,45z"/>
	<path class="st1" d="M48.1,33.3c-4.9,0-8.8,4-8.8,8.8s4,8.8,8.8,8.8c4.9,0,8.8-4,8.8-8.8S53,33.3,48.1,33.3z M48.1,45
		c-1.6,0-2.8-1.3-2.8-2.8s1.3-2.8,2.8-2.8c1.6,0,2.8,1.3,2.8,2.8S49.7,45,48.1,45z"/>
	<path class="st1" d="M71.3,33.3c-4.9,0-8.8,4-8.8,8.8s4,8.8,8.8,8.8s8.8-4,8.8-8.8S76.2,33.3,71.3,33.3z M71.3,45
		c-1.6,0-2.8-1.3-2.8-2.8s1.3-2.8,2.8-2.8s2.8,1.3,2.8,2.8S72.8,45,71.3,45z"/>
	<path class="st1" d="M48,0C21.5,0,0,19,0,42.3C0,55,4.4,62.1,8.1,65.8c1.9,1.9,2.2,2.4,3.2,4.5c0.3,0.7,0.5,1.9,0.4,2.7
		c-0.1,3.2-2.2,6.4-3.8,8.8c-1.5,2.3-3.3,5-1.1,7.1c0.5,0.5,1.2,1.2,3.2,1.2c2.4,0,6.7-1.1,14.6-5.1c1.2-0.6,2.2-1.7,3.2-2.6
		c0.5-0.5,1.3-1.3,1.8-1.7c0.4,0.1,1.2,0.4,1.8,0.6c0.7,0.3,1.6,0.6,2.5,0.9c2.5,0.8,8.9,2.5,14.2,2.5c26.5,0,48-19,48-42.3
		C96,19,74.5,0,48,0z M48,78.7c-3.1,0-7.8-0.8-12.5-2.2c-0.7-0.2-1.4-0.5-2.1-0.7c-1.9-0.7-3.9-1.5-6-0.6c-1.6,0.7-2.9,1.9-4,3.1
		c-0.6,0.6-1.3,1.3-1.7,1.5c-3.1,1.6-5.7,2.7-7.6,3.4c1.6-2.7,3.4-6.1,3.5-9.9c0-0.9,0-3.4-1-5.4c-1.3-2.7-1.9-3.8-4.4-6.2
		C9.4,58.7,6,53,6,42.3C6,22.3,24.8,6,48,6s42,16.3,42,36.3C90,62.4,71.2,78.7,48,78.7z"/>
</g>
</svg>
