<?xml version="1.0" encoding="utf-8"?>
<!-- Generator: Adobe Illustrator 22.0.1, SVG Export Plug-In . SVG Version: 6.00 Build 0)  -->
<svg version="1.1" id="Calque_1" xmlns="http://www.w3.org/2000/svg" xmlns:xlink="http://www.w3.org/1999/xlink" x="0px" y="0px"
	 viewBox="0 0 95.8 83.3" style="enable-background:new 0 0 95.8 83.3;" xml:space="preserve">
<style rel="stylesheet" type="text/css" href="style.css">	
</style>
<g>
	<path class="st0" d="M13.3,23C13.3,23,13.3,23,13.3,23l41.9-0.3c1.7,0,3-1.4,3-3c0-1.6-1.4-3-3-3c0,0,0,0,0,0L13.3,17
		c-1.7,0-3,1.4-3,3C10.3,21.7,11.7,23,13.3,23z"/>
	<path class="st0" d="M40.2,30.8c0-1.7-1.3-3-3-3h-24c-1.7,0-3,1.3-3,3s1.3,3,3,3h24C38.8,33.8,40.2,32.5,40.2,30.8z"/>
	<path class="st0" d="M92.8,22.2H67.7V3c0-1.7-1.3-3-3-3H3C1.3,0,0,1.3,0,3v44.3c0,1.7,1.3,3,3,3h8.2v7.8c0,1.7,1.3,3,3,3
		c0.7,0,1.3-0.2,1.8-0.6l0,0l12.4-9.1v17.7c0,1.7,1.3,3,3,3h34l14.7,10.6c0.5,0.4,1.1,0.6,1.8,0.6c0.9,0,1.9-0.4,2.4-1.2
		c0.4-0.5,0.6-1.1,0.6-1.8h0v-8.2h8c1.7,0,3-1.3,3-3v-44C95.8,23.5,94.5,22.2,92.8,22.2z M17.2,52.2v-4.9c0-1.7-1.3-3-3-3H6V6h55.7
		v38.3H28.8c-0.6,0-1.3,0.2-1.8,0.6L17.2,52.2z M89.8,66.2h-8c-1.7,0-3,1.3-3,3v5.3l-10.7-7.7c-0.5-0.4-1.1-0.6-1.8-0.6v0h-32V50.3
		h30.3c1.7,0,3-1.3,3-3V28.2h22.2V66.2z"/>
</g>
</svg>
