<?xml version="1.0" encoding="utf-8"?>
<!-- Generator: Adobe Illustrator 22.0.1, SVG Export Plug-In . SVG Version: 6.00 Build 0)  -->
<svg version="1.1" id="Calque_1" xmlns="http://www.w3.org/2000/svg" xmlns:xlink="http://www.w3.org/1999/xlink" x="0px" y="0px"
	 viewBox="0 0 67.7 95.7" style="enable-background:new 0 0 67.7 95.7;" xml:space="preserve">
<style type="text/css">
	.st0{fill:#ED2A29;}
</style>
<g>
	<path class="st0" d="M61.7,0H6C2.7,0,0,2.7,0,6v83.7c0,3.3,2.7,6,6,6h55.7c3.3,0,6-2.7,6-6V6C67.7,2.7,65,0,61.7,0z M61.7,6l0,5.3
		H6V6H61.7z M61.7,17.3l0,55.3H6V17.3H61.7z M6,89.7v-11h55.7l0,11H6z"/>
	<path class="st0" d="M17,51.3c3.3,0,6-2.7,6-6c0-3.3-2.7-6-6-6c-3.3,0-6,2.7-6,6C11,48.6,13.7,51.3,17,51.3z"/>
	<path class="st0" d="M33.8,51.3c3.3,0,6-2.7,6-6c0-3.3-2.7-6-6-6c-3.3,0-6,2.7-6,6C27.9,48.6,30.5,51.3,33.8,51.3z"/>
	<path class="st0" d="M46.3,50.2c1,0.7,2.2,1.1,3.5,1.1c0.3,0,0.6,0,1-0.1c1.6-0.3,3-1.1,3.9-2.4s1.3-2.9,1.1-4.4
		c-0.3-1.6-1.1-3-2.4-3.9c-1.3-0.9-2.9-1.3-4.4-1.1c-1.6,0.3-3,1.1-3.9,2.4c-0.9,1.3-1.3,2.9-1.1,4.4C44.2,47.9,45.1,49.2,46.3,50.2
		z"/>
</g>
</svg>
