<?xml version="1.0" encoding="utf-8"?>
<!-- Generator: Adobe Illustrator 22.0.1, SVG Export Plug-In . SVG Version: 6.00 Build 0)  -->
<svg version="1.1" id="Calque_1" xmlns="http://www.w3.org/2000/svg" xmlns:xlink="http://www.w3.org/1999/xlink" x="0px" y="0px"
	 viewBox="0 0 67.4 95.9" style="enable-background:new 0 0 67.4 95.9;" xml:space="preserve">
<style rel="stylesheet" type="text/css" href="style.css">
</style>
<g>
	<path class="st0" d="M15.9,50.4h35.2c2.5,0,4.5-2,4.5-4.5V26.6c0-2.5-2-4.5-4.5-4.5H15.9c-2.5,0-4.5,2-4.5,4.5v19.3
		C11.4,48.4,13.4,50.4,15.9,50.4z M16.4,27.1h34.2v18.3H16.4V27.1z"/>
	<path class="st0" d="M36.5,55.5h-5.9c-1.9,0-3.5,1.6-3.5,3.5s1.6,3.5,3.5,3.5h5.9c1.9,0,3.5-1.6,3.5-3.5S38.4,55.5,36.5,55.5z"/>
	<path class="st0" d="M47.8,55.5c-1.9,0-3.5,1.6-3.5,3.5s1.6,3.5,3.5,3.5h5.9c1.9,0,3.5-1.6,3.5-3.5s-1.6-3.5-3.5-3.5H47.8z"/>
	<path class="st0" d="M36.3,66.9h-5.5c-1.9,0-3.5,1.6-3.5,3.5s1.6,3.5,3.5,3.5h5.5c1.9,0,3.5-1.6,3.5-3.5S38.2,66.9,36.3,66.9z"/>
	<path class="st0" d="M53.3,66.9h-5.5c-1.9,0-3.5,1.6-3.5,3.5s1.6,3.5,3.5,3.5h5.5c1.9,0,3.5-1.6,3.5-3.5S55.2,66.9,53.3,66.9z"/>
	<path class="st0" d="M53.3,78h-5.5c-1.9,0-3.5,1.6-3.5,3.5s1.6,3.5,3.5,3.5h5.5c1.9,0,3.5-1.6,3.5-3.5S55.2,78,53.3,78z"/>
	<path class="st0" d="M36.3,78h-5.5c-1.9,0-3.5,1.6-3.5,3.5s1.6,3.5,3.5,3.5h5.5c1.9,0,3.5-1.6,3.5-3.5S38.2,78,36.3,78z"/>
	<path class="st0" d="M13.9,85h5.5c1.9,0,3.5-1.6,3.5-3.5S21.3,78,19.4,78h-5.5c-1.9,0-3.5,1.6-3.5,3.5S12,85,13.9,85z"/>
	<path class="st0" d="M13.9,73.9h5.5c1.9,0,3.5-1.6,3.5-3.5s-1.6-3.5-3.5-3.5h-5.5c-1.9,0-3.5,1.6-3.5,3.5S12,73.9,13.9,73.9z"/>
	<path class="st0" d="M13.9,62.6h5.5c1.9,0,3.5-1.6,3.5-3.5s-1.6-3.5-3.5-3.5h-5.5c-1.9,0-3.5,1.6-3.5,3.5S12,62.6,13.9,62.6z"/>
	<path class="st0" d="M62.4,11.3h-6.3l0.2-8.2c0-1.7-1.3-3-2.9-3.1c-1.6,0-3,1.3-3.1,2.9l-0.2,8.4H5c-2.8,0-5,2.2-5,5v74.6
		c0,2.8,2.2,5,5,5h57.4c2.8,0,5-2.2,5-5V16.3C67.4,13.5,65.2,11.3,62.4,11.3z M61.4,89.9H6V17.3h55.4V89.9z"/>
</g>
</svg>
